<svg xmlns="http://www.w3.org/2000/svg" viewBox="0 0 1600 900" role="img" aria-labelledby="title desc">
  <title id="title">AQI Predictor pipeline</title><desc id="desc">A technical diagram linking data, feature engineering, four models and a Streamlit interface.</desc>
  <rect width="1600" height="900" fill="#e9eee9"/><g stroke="#cad4cb" stroke-width="1" opacity=".75"><path d="M0 100h1600M0 200h1600M0 300h1600M0 400h1600M0 500h1600M0 600h1600M0 700h1600M0 800h1600"/><path d="M100 0v900M200 0v900M300 0v900M400 0v900M500 0v900M600 0v900M700 0v900M800 0v900M900 0v900M1000 0v900M1100 0v900M1200 0v900M1300 0v900M1400 0v900M1500 0v900"/></g>
  <g font-family="monospace" fill="#243028"><text x="100" y="115" font-size="26" letter-spacing="5">AQI / MODEL WORKBENCH</text><text x="100" y="157" font-size="16" fill="#657069">DATA → FEATURES → MODELS → INTERFACE</text></g>
  <g transform="translate(100 280)" font-family="monospace"><rect width="250" height="260" fill="#f8faf7" stroke="#708076"/><text x="25" y="45" font-size="15" fill="#5b8c72">01 / SOURCE</text><text x="25" y="115" font-size="31" fill="#243028">city_day</text><text x="25" y="151" font-size="31" fill="#243028">dataset</text><text x="25" y="220" font-size="14" fill="#657069">schema + loading checks</text></g>
  <path d="M350 410h115" stroke="#5b8c72" stroke-width="3"/><path d="m455 398 15 12-15 12" fill="none" stroke="#5b8c72" stroke-width="3"/>
  <g transform="translate(470 280)" font-family="monospace"><rect width="250" height="260" fill="#243028" stroke="#243028"/><text x="25" y="45" font-size="15" fill="#8db59a">02 / PIPELINE</text><text x="25" y="115" font-size="28" fill="#f8faf7">clean</text><text x="25" y="153" font-size="28" fill="#f8faf7">select</text><text x="25" y="191" font-size="28" fill="#f8faf7">split</text><text x="25" y="230" font-size="14" fill="#aeb8b0">repeatable preparation</text></g>
  <path d="M720 410h115" stroke="#5b8c72" stroke-width="3"/><path d="m825 398 15 12-15 12" fill="none" stroke="#5b8c72" stroke-width="3"/>
  <g transform="translate(840 220)" font-family="monospace"><rect width="300" height="380" fill="#f8faf7" stroke="#708076"/><text x="25" y="45" font-size="15" fill="#5b8c72">03 / COMPARE</text><g font-size="17" fill="#243028"><text x="25" y="112">LINEAR REGRESSION</text><text x="25" y="172">DECISION TREE</text><text x="25" y="232">RANDOM FOREST</text><text x="25" y="292">XGBOOST</text></g><g fill="#5b8c72"><rect x="25" y="126" width="210" height="5"/><rect x="25" y="186" width="155" height="5"/><rect x="25" y="246" width="235" height="5"/><rect x="25" y="306" width="250" height="5"/></g><text x="25" y="350" font-size="14" fill="#657069">cached model resources</text></g>
  <path d="M1140 410h115" stroke="#5b8c72" stroke-width="3"/><path d="m1245 398 15 12-15 12" fill="none" stroke="#5b8c72" stroke-width="3"/>
  <g transform="translate(1260 280)" font-family="monospace"><rect width="240" height="260" rx="120" fill="#5b8c72"/><text x="120" y="112" font-size="17" fill="#e9eee9" text-anchor="middle">STREAMLIT</text><text x="120" y="147" font-size="17" fill="#e9eee9" text-anchor="middle">EXPLORE</text><text x="120" y="182" font-size="17" fill="#e9eee9" text-anchor="middle">PREDICT</text></g>
  <text x="100" y="810" font-family="monospace" font-size="16" fill="#657069">EDUCATIONAL ESTIMATE · HISTORICAL DATA · LIMITATIONS DOCUMENTED</text>
</svg>
